<svg width="20" height="20" viewBox="0 0 20 20" fill="none" xmlns="http://www.w3.org/2000/svg">
<path d="M20 15.9937V19.8929H16V16.9685H13V14.044H10L7.74 11.841C7.19 12.0067 6.61 12.0944 6 12.0944C4.4087 12.0944 2.88258 11.4782 1.75736 10.3813C0.632141 9.28446 0 7.79679 0 6.24557C0 4.69436 0.632141 3.20669 1.75736 2.10982C2.88258 1.01294 4.4087 0.396729 6 0.396729C7.5913 0.396729 9.11742 1.01294 10.2426 2.10982C11.3679 3.20669 12 4.69436 12 6.24557C12 6.84021 11.91 7.4056 11.74 7.94174L20 15.9937ZM5 3.32115C4.46957 3.32115 3.96086 3.52656 3.58579 3.89218C3.21071 4.2578 3 4.7537 3 5.27077C3 5.78784 3.21071 6.28373 3.58579 6.64935C3.96086 7.01498 4.46957 7.22038 5 7.22038C5.53043 7.22038 6.03914 7.01498 6.41421 6.64935C6.78929 6.28373 7 5.78784 7 5.27077C7 4.7537 6.78929 4.2578 6.41421 3.89218C6.03914 3.52656 5.53043 3.32115 5 3.32115Z" fill="black"/>
</svg>
