<svg width="10" height="18" viewBox="0 0 10 18" fill="none" xmlns="http://www.w3.org/2000/svg">
<path d="M0 12.0693H2C2 13.122 3.37 14.0189 5 14.0189C6.63 14.0189 8 13.122 8 12.0693C8 10.997 6.96 10.607 4.76 10.0904C2.64 9.57375 0 8.93038 0 6.22042C0 4.47552 1.47 2.99381 3.5 2.49666V0.371582H6.5V2.49666C8.53 2.99381 10 4.47552 10 6.22042H8C8 5.16763 6.63 4.27081 5 4.27081C3.37 4.27081 2 5.16763 2 6.22042C2 7.29271 3.04 7.68263 5.24 8.19927C7.36 8.71592 10 9.35929 10 12.0693C10 13.8142 8.53 15.2959 6.5 15.793V17.9181H3.5V15.793C1.47 15.2959 0 13.8142 0 12.0693Z" fill="black"/>
</svg>
